/* XPM */
static char * im_xpm[] = {
"12 12 2 1",
" 	c None",
".	c #C5C8C6",
"            ",
" .  ... ... ",
" .  ... ... ",
" .          ",
" .          ",
" .  ... ... ",
" .  ... ... ",
" .          ",
" .          ",
" .  ... ... ",
" .  ... ... ",
"            "};
